<svg xmlns="http://www.w3.org/2000/svg" viewBox="0 0 64 64"><defs><style>.cls-1{fill:#0072ff;}</style></defs><title>Camera Lens</title><g id="Layer_2" data-name="Layer 2"><path class="cls-1" d="M18.84,25.2a1.89,1.89,0,0,0,3.28,0l2.33-4a2,2,0,0,1,.16-.37L33.16,6A1.33,1.33,0,0,0,32,4h0A27.87,27.87,0,0,0,16,9a6.15,6.15,0,0,0-1.82,8.12Z"/><path class="cls-1" d="M10.22,40H19.5a1.89,1.89,0,0,0,1.64-2.84L18.72,33l-.11-.16L10.06,18a1.33,1.33,0,0,0-2.3,0A27.86,27.86,0,0,0,4,32q0,1.2.1,2.37A6.14,6.14,0,0,0,10.22,40Z"/><path class="cls-1" d="M32.94,20.05h4.61A2,2,0,0,1,38,20H55.11a1.33,1.33,0,0,0,1.15-2A28.12,28.12,0,0,0,43.86,6.63,6.13,6.13,0,0,0,36,9.13L31.3,17.21A1.89,1.89,0,0,0,32.94,20.05Z"/><path class="cls-1" d="M53.78,24H44.47a1.89,1.89,0,0,0-1.64,2.84l2.33,4a2,2,0,0,1,.23.33L53.94,46a1.33,1.33,0,0,0,2.3,0A27.86,27.86,0,0,0,60,32q0-1.2-.1-2.37A6.14,6.14,0,0,0,53.78,24Z"/><path class="cls-1" d="M31,44H8.89a1.33,1.33,0,0,0-1.15,2,28.12,28.12,0,0,0,12.4,11.37A6.13,6.13,0,0,0,28,54.87l4.63-8A1.89,1.89,0,0,0,31,44Z"/><path class="cls-1" d="M45.18,38.83a1.89,1.89,0,0,0-3.28,0L39.49,43a2,2,0,0,1-.1.2L30.84,58A1.33,1.33,0,0,0,32,60h0a27.87,27.87,0,0,0,16-5,6.15,6.15,0,0,0,1.82-8.12Z"/></g></svg>